<mxfile host="app.diagrams.net" modified="2022-10-28T02:53:41.818Z" agent="5.0 (Macintosh; Intel Mac OS X 10_15_7) AppleWebKit/537.36 (KHTML, like Gecko) Chrome/106.0.0.0 Safari/537.36" etag="WYNjioWE3scDz1vla3Nr" version="17.1.5" type="github">
  <diagram id="DL1clWp16g_kMbRtZTP2" name="Page-1">
    <mxGraphModel dx="1263" dy="809" grid="1" gridSize="10" guides="1" tooltips="1" connect="1" arrows="1" fold="1" page="1" pageScale="1" pageWidth="827" pageHeight="1169" math="0" shadow="0">
      <root>
        <mxCell id="0" />
        <mxCell id="1" parent="0" />
        <mxCell id="JTSspSDbBpjjjitF5m1d-1" value="" style="rounded=0;whiteSpace=wrap;html=1;fillColor=#d5e8d4;strokeColor=#82b366;" parent="1" vertex="1">
          <mxGeometry x="270" y="273" width="120" height="40" as="geometry" />
        </mxCell>
        <mxCell id="JTSspSDbBpjjjitF5m1d-2" value="" style="rounded=0;whiteSpace=wrap;html=1;fillColor=#d5e8d4;strokeColor=#82b366;" parent="1" vertex="1">
          <mxGeometry x="510" y="273" width="120" height="40" as="geometry" />
        </mxCell>
        <mxCell id="JTSspSDbBpjjjitF5m1d-3" value="" style="rounded=0;whiteSpace=wrap;html=1;fillColor=#d5e8d4;strokeColor=#82b366;" parent="1" vertex="1">
          <mxGeometry x="390" y="273" width="120" height="40" as="geometry" />
        </mxCell>
        <mxCell id="JTSspSDbBpjjjitF5m1d-4" value="" style="rounded=0;whiteSpace=wrap;html=1;fillColor=#fff2cc;strokeColor=#d6b656;" parent="1" vertex="1">
          <mxGeometry x="270" y="143" width="440" height="40" as="geometry" />
        </mxCell>
        <mxCell id="JTSspSDbBpjjjitF5m1d-5" value="" style="rounded=0;whiteSpace=wrap;html=1;fillColor=#d5e8d4;strokeColor=#82b366;" parent="1" vertex="1">
          <mxGeometry x="630" y="273" width="120" height="40" as="geometry" />
        </mxCell>
        <mxCell id="JTSspSDbBpjjjitF5m1d-6" value="" style="rounded=0;whiteSpace=wrap;html=1;fillColor=#dae8fc;strokeColor=#6c8ebf;" parent="1" vertex="1">
          <mxGeometry x="710" y="273" width="40" height="40" as="geometry" />
        </mxCell>
        <mxCell id="sjgeM_ln_SErjF8x__SM-1" value="" style="shape=curlyBracket;whiteSpace=wrap;html=1;rounded=1;rotation=90;" vertex="1" parent="1">
          <mxGeometry x="480" y="40" width="20" height="440" as="geometry" />
        </mxCell>
        <mxCell id="sjgeM_ln_SErjF8x__SM-2" value="mask = True" style="text;html=1;strokeColor=none;fillColor=none;align=center;verticalAlign=middle;whiteSpace=wrap;rounded=0;" vertex="1" parent="1">
          <mxGeometry x="450" y="223" width="80" height="30" as="geometry" />
        </mxCell>
        <mxCell id="sjgeM_ln_SErjF8x__SM-3" value="input memory" style="text;html=1;strokeColor=none;fillColor=none;align=center;verticalAlign=middle;whiteSpace=wrap;rounded=0;" vertex="1" parent="1">
          <mxGeometry x="170" y="153" width="80" height="30" as="geometry" />
        </mxCell>
        <mxCell id="sjgeM_ln_SErjF8x__SM-4" value="" style="shape=curlyBracket;whiteSpace=wrap;html=1;rounded=1;rotation=90;" vertex="1" parent="1">
          <mxGeometry x="719.25" y="246.75" width="20" height="30.5" as="geometry" />
        </mxCell>
        <mxCell id="sjgeM_ln_SErjF8x__SM-5" value="mask = False" style="text;html=1;strokeColor=none;fillColor=none;align=center;verticalAlign=middle;whiteSpace=wrap;rounded=0;" vertex="1" parent="1">
          <mxGeometry x="688.25" y="223" width="80" height="30" as="geometry" />
        </mxCell>
        <mxCell id="sjgeM_ln_SErjF8x__SM-6" value="block[0]" style="text;html=1;align=center;verticalAlign=middle;resizable=0;points=[];autosize=1;strokeColor=none;fillColor=none;" vertex="1" parent="1">
          <mxGeometry x="300" y="323" width="60" height="20" as="geometry" />
        </mxCell>
        <mxCell id="sjgeM_ln_SErjF8x__SM-7" value="block[1]" style="text;html=1;align=center;verticalAlign=middle;resizable=0;points=[];autosize=1;strokeColor=none;fillColor=none;" vertex="1" parent="1">
          <mxGeometry x="420" y="323" width="60" height="20" as="geometry" />
        </mxCell>
        <mxCell id="sjgeM_ln_SErjF8x__SM-8" value="block[2]" style="text;html=1;align=center;verticalAlign=middle;resizable=0;points=[];autosize=1;strokeColor=none;fillColor=none;" vertex="1" parent="1">
          <mxGeometry x="540" y="323" width="60" height="20" as="geometry" />
        </mxCell>
        <mxCell id="sjgeM_ln_SErjF8x__SM-9" value="block[3]" style="text;html=1;align=center;verticalAlign=middle;resizable=0;points=[];autosize=1;strokeColor=none;fillColor=none;" vertex="1" parent="1">
          <mxGeometry x="670" y="323" width="60" height="20" as="geometry" />
        </mxCell>
        <mxCell id="sjgeM_ln_SErjF8x__SM-10" value="" style="endArrow=none;dashed=1;html=1;dashPattern=1 3;strokeWidth=2;rounded=0;exitX=0;exitY=0.5;exitDx=0;exitDy=0;" edge="1" parent="1" source="JTSspSDbBpjjjitF5m1d-1">
          <mxGeometry width="50" height="50" relative="1" as="geometry">
            <mxPoint x="270" y="254" as="sourcePoint" />
            <mxPoint x="270" y="184" as="targetPoint" />
          </mxGeometry>
        </mxCell>
        <mxCell id="sjgeM_ln_SErjF8x__SM-11" value="" style="endArrow=none;dashed=1;html=1;dashPattern=1 3;strokeWidth=2;rounded=0;exitX=0;exitY=0.5;exitDx=0;exitDy=0;" edge="1" parent="1">
          <mxGeometry width="50" height="50" relative="1" as="geometry">
            <mxPoint x="710" y="293" as="sourcePoint" />
            <mxPoint x="710" y="184" as="targetPoint" />
          </mxGeometry>
        </mxCell>
        <mxCell id="sjgeM_ln_SErjF8x__SM-12" value="output of masked load" style="text;html=1;strokeColor=none;fillColor=none;align=center;verticalAlign=middle;whiteSpace=wrap;rounded=0;" vertex="1" parent="1">
          <mxGeometry x="170" y="278" width="90" height="30" as="geometry" />
        </mxCell>
        <mxCell id="sjgeM_ln_SErjF8x__SM-13" value="" style="rounded=0;whiteSpace=wrap;html=1;fillColor=#f8cecc;strokeColor=#b85450;" vertex="1" parent="1">
          <mxGeometry x="270" y="400" width="120" height="40" as="geometry" />
        </mxCell>
        <mxCell id="sjgeM_ln_SErjF8x__SM-14" value="" style="rounded=0;whiteSpace=wrap;html=1;fillColor=#f8cecc;strokeColor=#b85450;" vertex="1" parent="1">
          <mxGeometry x="510" y="400" width="120" height="40" as="geometry" />
        </mxCell>
        <mxCell id="sjgeM_ln_SErjF8x__SM-15" value="" style="rounded=0;whiteSpace=wrap;html=1;fillColor=#f8cecc;strokeColor=#b85450;" vertex="1" parent="1">
          <mxGeometry x="390" y="400" width="120" height="40" as="geometry" />
        </mxCell>
        <mxCell id="sjgeM_ln_SErjF8x__SM-16" value="" style="rounded=0;whiteSpace=wrap;html=1;fillColor=#f8cecc;strokeColor=#b85450;" vertex="1" parent="1">
          <mxGeometry x="630" y="400" width="120" height="40" as="geometry" />
        </mxCell>
        <mxCell id="sjgeM_ln_SErjF8x__SM-17" value="" style="endArrow=none;dashed=1;html=1;dashPattern=1 3;strokeWidth=2;rounded=0;exitX=0;exitY=0.5;exitDx=0;exitDy=0;" edge="1" parent="1">
          <mxGeometry width="50" height="50" relative="1" as="geometry">
            <mxPoint x="270" y="403" as="sourcePoint" />
            <mxPoint x="270" y="294" as="targetPoint" />
          </mxGeometry>
        </mxCell>
        <mxCell id="sjgeM_ln_SErjF8x__SM-18" value="" style="endArrow=none;dashed=1;html=1;dashPattern=1 3;strokeWidth=2;rounded=0;exitX=0;exitY=0.5;exitDx=0;exitDy=0;" edge="1" parent="1">
          <mxGeometry width="50" height="50" relative="1" as="geometry">
            <mxPoint x="750" y="413" as="sourcePoint" />
            <mxPoint x="750" y="304" as="targetPoint" />
          </mxGeometry>
        </mxCell>
        <mxCell id="sjgeM_ln_SErjF8x__SM-19" value="" style="endArrow=none;dashed=1;html=1;dashPattern=1 3;strokeWidth=2;rounded=0;exitX=0;exitY=0.5;exitDx=0;exitDy=0;" edge="1" parent="1">
          <mxGeometry width="50" height="50" relative="1" as="geometry">
            <mxPoint x="630" y="423" as="sourcePoint" />
            <mxPoint x="630" y="314" as="targetPoint" />
          </mxGeometry>
        </mxCell>
        <mxCell id="sjgeM_ln_SErjF8x__SM-20" value="" style="endArrow=none;dashed=1;html=1;dashPattern=1 3;strokeWidth=2;rounded=0;exitX=0;exitY=0.5;exitDx=0;exitDy=0;" edge="1" parent="1">
          <mxGeometry width="50" height="50" relative="1" as="geometry">
            <mxPoint x="510" y="403" as="sourcePoint" />
            <mxPoint x="510" y="294" as="targetPoint" />
          </mxGeometry>
        </mxCell>
        <mxCell id="sjgeM_ln_SErjF8x__SM-21" value="" style="endArrow=none;dashed=1;html=1;dashPattern=1 3;strokeWidth=2;rounded=0;exitX=0;exitY=0.5;exitDx=0;exitDy=0;" edge="1" parent="1">
          <mxGeometry width="50" height="50" relative="1" as="geometry">
            <mxPoint x="390" y="413" as="sourcePoint" />
            <mxPoint x="390" y="304" as="targetPoint" />
          </mxGeometry>
        </mxCell>
        <mxCell id="sjgeM_ln_SErjF8x__SM-22" value="tiled&lt;br&gt;computation" style="text;html=1;strokeColor=none;fillColor=none;align=center;verticalAlign=middle;whiteSpace=wrap;rounded=0;" vertex="1" parent="1">
          <mxGeometry x="165" y="410" width="90" height="30" as="geometry" />
        </mxCell>
        <mxCell id="sjgeM_ln_SErjF8x__SM-23" value="compute[0]" style="text;html=1;align=center;verticalAlign=middle;resizable=0;points=[];autosize=1;strokeColor=none;fillColor=none;" vertex="1" parent="1">
          <mxGeometry x="305" y="450" width="70" height="20" as="geometry" />
        </mxCell>
        <mxCell id="sjgeM_ln_SErjF8x__SM-24" value="compute[1]" style="text;html=1;align=center;verticalAlign=middle;resizable=0;points=[];autosize=1;strokeColor=none;fillColor=none;" vertex="1" parent="1">
          <mxGeometry x="420" y="450" width="70" height="20" as="geometry" />
        </mxCell>
        <mxCell id="sjgeM_ln_SErjF8x__SM-25" value="compute[2]" style="text;html=1;align=center;verticalAlign=middle;resizable=0;points=[];autosize=1;strokeColor=none;fillColor=none;" vertex="1" parent="1">
          <mxGeometry x="535" y="450" width="70" height="20" as="geometry" />
        </mxCell>
        <mxCell id="sjgeM_ln_SErjF8x__SM-26" value="compute[3]" style="text;html=1;align=center;verticalAlign=middle;resizable=0;points=[];autosize=1;strokeColor=none;fillColor=none;" vertex="1" parent="1">
          <mxGeometry x="655" y="450" width="70" height="20" as="geometry" />
        </mxCell>
      </root>
    </mxGraphModel>
  </diagram>
</mxfile>
